<svg xmlns="http://www.w3.org/2000/svg" viewBox="0 0 64 64" role="img" aria-label="Transit">
  <rect width="64" height="64" rx="8" fill="#0f766e"/>
  <path fill="#ecfdf5" d="M16 20h32c2 0 3 1 3 3v20c0 1-1 2-2 2h-4l-1 3h-3l-1-3H22l-1 3h-3l-1-3h-3c-1 0-2-1-2-2V23c0-2 1-3 3-3z"/>
  <rect x="20" y="26" width="5" height="4" fill="#0f766e" rx="1"/>
  <rect x="30" y="26" width="5" height="4" fill="#0f766e" rx="1"/>
  <rect x="40" y="26" width="5" height="4" fill="#0f766e" rx="1"/>
  <path fill="none" stroke="#ecfdf5" stroke-width="2" d="M18 34h28"/>
  <path fill="none" stroke="#ecfdf5" stroke-width="1.5" d="M24 20v-4M40 20v-4" stroke-linecap="round"/>
</svg>
